<?xml version="1.0" standalone="no"?>
<!DOCTYPE svg PUBLIC "-//W3C//DTD SVG 20010904//EN"
 "http://www.w3.org/TR/2001/REC-SVG-20010904/DTD/svg10.dtd">
<svg version="1.0" xmlns="http://www.w3.org/2000/svg"
 width="200.000000pt" height="200.000000pt" viewBox="0 0 200.000000 200.000000"
 preserveAspectRatio="xMidYMid meet">

<g transform="translate(0.000000,200.000000) scale(0.100000,-0.100000)"
fill="#000000" stroke="none">
<path d="M781 1916 c-9 -10 -8 -16 4 -26 12 -10 15 -42 15 -176 0 -103 -4
-164 -10 -164 -5 0 -10 -9 -10 -20 0 -11 4 -20 9 -20 5 0 8 7 7 16 0 9 5 19
13 22 10 3 12 -1 8 -17 -3 -11 -1 -21 4 -21 12 0 11 37 -1 45 -6 4 -10 70 -10
164 0 129 3 161 15 171 12 10 13 16 4 26 -6 8 -17 14 -24 14 -7 0 -18 -6 -24
-14z m42 -11 c1 -5 -6 -11 -15 -13 -11 -2 -18 3 -18 13 0 17 30 18 33 0z"/>
<path d="M1033 1923 c20 -5 23 -33 3 -33 -9 0 -12 -8 -8 -27 5 -23 7 -24 10
-8 2 11 9 26 14 32 14 18 2 43 -19 42 -17 -1 -17 -2 0 -6z"/>
<path d="M1183 1923 c19 -5 24 -33 5 -33 -10 0 -12 -37 -10 -161 2 -88 -1
-166 -6 -172 -15 -20 -22 -47 -12 -47 6 0 10 9 10 20 0 11 5 20 10 20 6 0 10
-9 10 -20 0 -11 4 -20 10 -20 6 0 6 9 0 26 -14 37 -13 337 1 351 16 16 4 43
-18 42 -17 -1 -17 -2 0 -6z"/>
<path d="M1001 1904 c0 -11 3 -14 6 -6 3 7 2 16 -1 19 -3 4 -6 -2 -5 -13z"/>
<path d="M1151 1904 c0 -11 3 -14 6 -6 3 7 2 16 -1 19 -3 4 -6 -2 -5 -13z"/>
<path d="M1083 1855 c-3 -9 -3 -19 1 -22 3 -4 6 1 6 10 0 10 6 17 14 17 22 0
30 -19 12 -26 -14 -5 -16 -28 -16 -145 0 -86 -4 -139 -10 -139 -5 0 -10 -9
-10 -20 0 -11 4 -20 9 -20 5 0 8 7 7 16 0 9 5 19 13 22 10 3 12 -1 8 -17 -3
-11 -1 -21 4 -21 12 0 11 37 -1 45 -6 4 -10 60 -10 134 0 103 3 131 15 141 12
10 13 16 4 26 -15 19 -38 18 -46 -1z"/>
<path d="M1032 1800 c0 -19 2 -27 5 -17 2 9 2 25 0 35 -3 9 -5 1 -5 -18z"/>
<path d="M713 1793 c-18 -7 -16 -27 5 -46 17 -16 19 -16 32 8 7 14 10 28 7 32
-4 3 -7 -1 -7 -10 0 -10 -8 -17 -20 -17 -25 0 -26 16 -2 29 17 11 7 13 -15 4z"/>
<path d="M1032 1665 c-1 -58 -7 -106 -13 -112 -6 -6 -9 -19 -6 -29 4 -16 5
-15 6 4 1 27 21 30 21 2 0 -11 5 -20 11 -20 6 0 7 5 2 13 -4 6 -11 64 -14 127
l-5 115 -2 -100z"/>
<path d="M853 1735 c-3 -9 -3 -19 1 -22 3 -4 6 1 6 10 0 10 8 17 20 17 11 0
20 -7 20 -15 0 -8 -7 -15 -15 -15 -9 0 -12 -6 -8 -15 5 -13 8 -13 20 5 8 12
12 27 9 35 -7 20 -45 19 -53 0z"/>
<path d="M933 1734 c-3 -8 -1 -20 6 -27 14 -14 15 -157 1 -157 -5 0 -10 -9
-10 -20 0 -11 4 -20 9 -20 5 0 8 7 7 16 0 9 5 19 12 21 7 3 12 -5 13 -19 1
-18 2 -19 6 -4 3 10 0 23 -6 29 -17 17 -14 142 4 157 12 10 13 16 4 26 -15 19
-38 18 -46 -2z m40 -9 c1 -5 -6 -11 -15 -13 -11 -2 -18 3 -18 13 0 17 30 18
33 0z"/>
<path d="M1231 1728 c0 -9 4 -20 9 -23 6 -3 10 -40 10 -81 0 -43 -4 -74 -10
-74 -5 0 -10 -9 -10 -20 0 -11 4 -20 9 -20 5 0 8 7 7 16 0 9 5 19 13 22 10 3
12 -1 8 -17 -3 -11 -1 -21 4 -21 12 0 11 37 -1 45 -12 8 -13 145 -1 145 13 0
22 28 10 35 -5 4 -8 1 -7 -6 5 -20 -30 -22 -35 -2 -4 16 -5 16 -6 1z"/>
<path d="M731 1694 c0 -11 3 -14 6 -6 3 7 2 16 -1 19 -3 4 -6 -2 -5 -13z"/>
<path d="M877 1575 c-4 -11 -11 -30 -17 -42 -6 -15 -6 -23 0 -23 6 0 10 9 10
20 0 11 5 20 10 20 6 0 10 -9 10 -20 0 -11 4 -20 9 -20 6 0 7 11 1 28 -5 15
-10 34 -12 42 -3 11 -6 9 -11 -5z"/>
<path d="M713 1543 c-3 -10 -8 -21 -10 -25 -2 -5 1 -8 6 -8 6 0 11 9 11 20 0
11 5 20 10 20 6 0 10 -9 10 -20 0 -11 4 -20 10 -20 13 0 -4 43 -18 48 -7 2
-15 -5 -19 -15z"/>
<path d="M660 1495 c0 -8 -8 -15 -19 -15 -21 0 -45 -23 -34 -33 3 -4 17 -7 30
-7 34 0 28 -16 -8 -24 -37 -7 -34 -30 4 -34 33 -4 36 -22 4 -22 -13 0 -27 -3
-30 -7 -11 -10 13 -33 34 -33 11 0 19 -4 19 -10 0 -5 -11 -10 -23 -10 -13 0
-27 -3 -30 -7 -11 -10 13 -33 34 -33 11 0 19 -4 19 -10 0 -5 -11 -10 -24 -10
-27 0 -42 -15 -26 -25 5 -3 10 -1 10 4 0 6 9 11 20 11 11 0 20 -4 20 -10 0 -5
-6 -10 -12 -10 -9 0 -8 -3 2 -10 28 -17 -1 -24 -101 -25 -75 0 -99 -3 -99 -13
0 -8 -8 -12 -17 -10 -10 2 -17 10 -15 17 1 7 -2 9 -9 6 -8 -5 -6 -12 5 -23 13
-13 19 -14 39 -3 15 8 51 12 96 9 39 -1 71 0 71 5 0 4 9 7 20 7 18 0 19 -7 19
-67 -1 -115 -1 -113 25 -113 18 0 25 -6 28 -22 2 -13 10 -23 18 -23 8 0 16 10
18 23 5 30 24 28 40 -5 13 -29 17 -218 5 -226 -5 -2 -2 -2 5 -1 7 2 17 -6 22
-19 6 -16 9 -17 9 -5 1 9 -3 20 -9 23 -15 9 -13 196 3 228 15 33 34 35 39 5 2
-13 10 -23 18 -23 8 0 16 10 18 23 2 12 9 22 15 22 25 0 37 -56 39 -184 l2
-131 6 135 c6 142 14 180 35 180 8 0 15 -10 17 -22 2 -13 10 -23 18 -23 8 0
16 10 18 23 5 30 24 28 40 -5 18 -39 16 -147 -3 -163 -17 -14 -3 -40 22 -40
19 0 28 29 14 43 -15 15 -14 126 2 160 14 31 37 36 37 7 0 -11 5 -20 10 -20 6
0 11 -32 12 -72 1 -56 2 -61 5 -23 8 133 24 166 51 108 18 -40 17 -247 -2
-263 -19 -15 -9 -40 15 -40 24 0 36 27 20 43 -7 7 -11 53 -11 124 0 108 8 145
35 165 6 4 -133 8 -308 8 l-318 0 3 255 c2 140 0 255 -4 255 -5 0 -8 -7 -8
-15z m0 -35 c0 -5 -9 -10 -20 -10 -11 0 -20 5 -20 10 0 6 9 10 20 10 11 0 20
-4 20 -10z m0 -60 c0 -5 -9 -10 -20 -10 -11 0 -20 5 -20 10 0 6 9 10 20 10 11
0 20 -4 20 -10z m0 -60 c0 -5 -9 -10 -20 -10 -11 0 -20 5 -20 10 0 6 9 10 20
10 11 0 20 -4 20 -10z m0 -60 c0 -5 -9 -10 -20 -10 -11 0 -20 5 -20 10 0 6 9
10 20 10 11 0 20 -4 20 -10z m80 -305 c0 -8 -4 -15 -10 -15 -5 0 -10 7 -10 15
0 8 5 15 10 15 6 0 10 -7 10 -15z m80 0 c0 -8 -7 -15 -15 -15 -8 0 -15 7 -15
15 0 8 7 15 15 15 8 0 15 -7 15 -15z m70 -6 c0 -11 -4 -17 -10 -14 -5 3 -10
13 -10 21 0 8 5 14 10 14 6 0 10 -9 10 -21z m78 4 c-4 -22 -22 -20 -26 1 -2
10 3 16 13 16 10 0 15 -7 13 -17z m72 2 c0 -8 -4 -15 -10 -15 -5 0 -10 7 -10
15 0 8 5 15 10 15 6 0 10 -7 10 -15z m78 -2 c-4 -22 -22 -20 -26 1 -2 10 3 16
13 16 10 0 15 -7 13 -17z m72 -4 c0 -11 -4 -17 -10 -14 -5 3 -10 13 -10 21 0
8 5 14 10 14 6 0 10 -9 10 -21z m80 6 c0 -8 -7 -15 -15 -15 -8 0 -15 7 -15 15
0 8 7 15 15 15 8 0 15 -7 15 -15z m-150 -190 c0 -8 -6 -15 -14 -15 -17 0 -28
14 -19 24 12 12 33 6 33 -9z m150 -100 c0 -8 -6 -15 -14 -15 -17 0 -28 14 -19
24 12 12 33 6 33 -9z"/>
<path d="M393 1465 c-3 -9 -3 -19 1 -22 3 -4 6 1 6 11 0 11 6 16 18 14 9 -2
16 -11 14 -19 -3 -11 -1 -11 8 -2 7 6 9 16 6 22 -10 16 -46 13 -53 -4z"/>
<path d="M1316 1471 c-3 -5 -3 -16 0 -24 7 -19 59 -7 59 14 0 16 -50 25 -59
10z m54 -11 c0 -5 -9 -10 -20 -10 -11 0 -20 5 -20 10 0 6 9 10 20 10 11 0 20
-4 20 -10z"/>
<path d="M1601 1466 c-9 -11 -8 -15 4 -20 10 -4 14 -2 9 5 -4 6 0 15 7 20 8 5
9 9 3 9 -6 0 -17 -6 -23 -14z"/>
<path d="M1644 1460 c0 -13 4 -16 10 -10 7 7 7 13 0 20 -6 6 -10 3 -10 -10z"/>
<path d="M742 1253 l3 -198 60 -1 60 0 -58 3 -58 4 3 194 c2 107 0 195 -5 195
-4 0 -6 -89 -5 -197z"/>
<path d="M1235 1250 c0 -109 3 -196 8 -193 4 2 7 89 7 193 0 104 -3 191 -7
193 -5 3 -8 -84 -8 -193z"/>
<path d="M170 1400 c0 -11 4 -20 8 -20 4 0 8 9 8 20 0 11 -4 20 -8 20 -4 0 -8
-9 -8 -20z"/>
<path d="M214 1400 c0 -13 4 -16 10 -10 7 7 7 13 0 20 -6 6 -10 3 -10 -10z"/>
<path d="M1317 1413 c-10 -16 10 -35 34 -31 33 4 31 32 -3 36 -14 2 -28 -1
-31 -5z m53 -13 c0 -5 -9 -10 -20 -10 -11 0 -20 5 -20 10 0 6 9 10 20 10 11 0
20 -4 20 -10z"/>
<path d="M1764 1409 c-3 -6 -2 -15 3 -20 5 -5 9 -1 9 11 0 23 -2 24 -12 9z"/>
<path d="M1804 1400 c0 -13 4 -16 10 -10 7 7 7 13 0 20 -6 6 -10 3 -10 -10z"/>
<path d="M260 1340 c0 -11 4 -20 8 -20 4 0 8 9 8 20 0 11 -4 20 -8 20 -4 0 -8
-9 -8 -20z"/>
<path d="M306 1352 c2 -3 -1 -11 -7 -19 -8 -9 -8 -13 -1 -13 16 0 26 20 15 30
-6 4 -8 5 -7 2z"/>
<path d="M1317 1353 c-10 -16 10 -35 34 -31 33 4 31 32 -3 36 -14 2 -28 -1
-31 -5z m53 -13 c0 -5 -9 -10 -20 -10 -11 0 -20 5 -20 10 0 6 9 10 20 10 11 0
20 -4 20 -10z"/>
<path d="M1707 1353 c-11 -10 -8 -20 6 -26 8 -3 13 3 13 14 0 19 -8 24 -19 12z"/>
<path d="M1755 1351 c4 -8 2 -17 -6 -22 -9 -6 -10 -9 -2 -9 19 0 27 21 13 33
-10 9 -11 9 -5 -2z"/>
<path d="M1321 1282 c1 -17 3 -21 6 -9 5 18 38 24 46 7 3 -6 4 -5 3 2 -1 6
-14 15 -29 19 -25 7 -27 5 -26 -19z"/>
<path d="M260 1280 c0 -11 4 -20 9 -20 5 0 7 9 4 20 -3 11 -7 20 -9 20 -2 0
-4 -9 -4 -20z"/>
<path d="M302 1295 c4 -4 3 -14 -3 -22 -7 -8 -8 -13 -1 -13 15 0 23 28 9 36
-7 4 -9 4 -5 -1z"/>
<path d="M1762 1291 c-11 -6 -10 -10 0 -19 11 -8 14 -7 14 9 0 10 0 19 -1 19
0 0 -6 -4 -13 -9z"/>
<path d="M1805 1291 c4 -8 2 -17 -6 -22 -9 -6 -10 -9 -2 -9 19 0 27 21 13 33
-10 9 -11 9 -5 -2z"/>
<path d="M203 1239 c9 -5 17 -14 17 -19 0 -15 -38 -12 -43 3 -2 7 -3 6 -3 -3
2 -19 33 -25 52 -10 12 11 12 14 -3 26 -10 7 -22 13 -28 13 -5 0 -2 -4 8 -10z"/>
<path d="M1523 1239 c23 -13 22 -29 -3 -29 -11 0 -20 7 -20 16 0 8 -5 12 -10
9 -8 -5 -7 -11 1 -21 13 -16 45 -19 54 -4 8 13 -12 40 -29 40 -6 0 -3 -5 7
-11z"/>
<path d="M1367 1225 c3 -8 9 -12 14 -9 12 7 11 11 -5 17 -10 4 -13 1 -9 -8z"/>
<path d="M318 1223 c7 -3 16 -2 19 1 4 3 -2 6 -13 5 -11 0 -14 -3 -6 -6z"/>
<path d="M1817 1176 c-15 -12 -15 -15 -3 -26 19 -15 50 -9 52 10 0 9 -1 10 -3
3 -5 -15 -43 -18 -43 -3 0 5 8 14 18 19 9 6 13 10 7 10 -5 0 -18 -6 -28 -13z"/>
<path d="M1367 1165 c3 -9 73 -9 73 0 0 2 -17 5 -39 7 -24 2 -37 -1 -34 -7z"/>
<path d="M1483 1163 c20 -2 54 -2 75 0 20 2 3 4 -38 4 -41 0 -58 -2 -37 -4z"/>
<path d="M1648 1163 c29 -2 74 -2 100 0 26 2 2 3 -53 3 -55 0 -76 -1 -47 -3z"/>
<path d="M111 1116 c-18 -22 13 -42 42 -28 13 7 82 13 162 15 l140 3 -147 2
c-85 1 -149 6 -153 12 -9 14 -31 12 -44 -4z m39 -11 c0 -8 -6 -15 -14 -15 -17
0 -28 14 -19 24 12 12 33 6 33 -9z"/>
<path d="M1820 1120 c-8 -5 -78 -11 -155 -12 l-140 -2 135 -3 c75 -2 145 -8
157 -14 27 -15 53 -5 52 18 -1 17 -2 17 -6 1 -2 -10 -13 -18 -24 -18 -24 0
-25 16 -1 29 9 6 13 10 7 11 -5 0 -17 -5 -25 -10z"/>
<path d="M535 1110 l-80 -5 81 -5 c58 -4 85 -1 93 8 9 9 9 12 -1 10 -7 -1 -49
-4 -93 -8z"/>
<path d="M1363 1107 c0 -10 15 -12 61 -9 88 5 100 10 29 11 -34 0 -68 3 -76 6
-7 3 -14 0 -14 -8z"/>
<path d="M263 1054 c-10 -25 13 -40 40 -25 17 9 67 12 174 9 98 -2 149 1 147
7 -3 6 -61 9 -156 7 -96 -2 -155 1 -161 7 -16 16 -37 13 -44 -5z m40 -9 c1 -5
-6 -11 -15 -13 -11 -2 -18 3 -18 13 0 17 30 18 33 0z"/>
<path d="M1623 1056 c-21 -12 -21 -12 9 -25 33 -15 55 -4 45 23 -7 18 -23 19
-54 2z m47 -11 c0 -8 -6 -15 -14 -15 -17 0 -28 14 -19 24 12 12 33 6 33 -9z"/>
<path d="M933 1053 c31 -2 83 -2 115 0 31 2 5 3 -58 3 -63 0 -89 -1 -57 -3z"/>
<path d="M1138 1053 c18 -2 45 -2 60 0 15 2 0 4 -33 4 -33 0 -45 -2 -27 -4z"/>
<path d="M1363 1046 c0 -11 9 -13 36 -9 44 7 53 13 18 13 -14 0 -32 2 -40 5
-8 4 -14 0 -14 -9z"/>
<path d="M1483 1043 c20 -2 54 -2 75 0 20 2 3 4 -38 4 -41 0 -58 -2 -37 -4z"/>
<path d="M1034 825 c0 -55 1 -76 3 -47 2 29 2 74 0 100 -2 26 -3 2 -3 -53z"/>
<path d="M712 848 c-15 -15 -16 -35 -2 -43 17 -10 50 5 50 23 -1 16 -2 15 -11
0 -12 -22 -39 -24 -39 -3 0 8 7 15 15 15 8 0 15 5 15 10 0 14 -13 13 -28 -2z"/>
<path d="M1181 779 c0 -15 -8 -32 -16 -39 -17 -14 -20 -40 -4 -40 5 0 7 5 4
10 -9 15 4 30 21 23 9 -3 13 -12 9 -22 -5 -12 -4 -13 6 -4 9 9 9 16 1 25 -5 7
-12 27 -15 43 -4 28 -4 28 -6 4z"/>
<path d="M1030 673 c-4 -37 -1 -54 8 -58 19 -7 14 -25 -7 -25 -11 0 -22 7 -24
15 -4 11 -4 10 -3 -2 1 -21 33 -30 49 -14 7 7 7 14 -1 23 -6 8 -12 36 -14 63
l-3 50 -5 -52z"/>
<path d="M925 669 c-4 -6 -5 -12 -2 -15 2 -3 7 2 10 11 7 17 1 20 -8 4z"/>
<path d="M967 661 c-4 -17 -3 -21 5 -13 5 5 8 16 6 23 -3 8 -7 3 -11 -10z"/>
<path d="M883 599 c9 -5 17 -14 17 -19 0 -15 -38 -12 -43 3 -2 7 -3 6 -3 -3 1
-18 34 -26 49 -11 12 12 -8 41 -27 41 -6 0 -3 -5 7 -11z"/>
<path d="M231 395 c-1 -5 8 -21 19 -35 11 -14 20 -35 20 -47 0 -13 5 -23 10
-23 6 0 10 11 10 24 0 13 10 35 21 50 27 35 19 43 -10 12 l-23 -25 -24 27
c-13 15 -23 23 -23 17z"/>
<path d="M538 386 c-34 -17 -31 -66 5 -86 24 -13 30 -13 55 0 29 17 40 53 22
74 -15 20 -56 25 -82 12z m68 -31 c11 -43 -34 -73 -64 -43 -13 13 -16 50 -5
61 3 4 19 7 34 7 22 0 30 -6 35 -25z"/>
<path d="M832 389 c-26 -10 -25 -28 1 -41 9 -4 24 -12 33 -16 27 -13 12 -27
-26 -25 -26 2 -31 0 -20 -7 21 -14 53 -12 75 4 16 12 17 16 6 29 -7 9 -25 17
-39 19 -37 4 -30 22 10 29 18 4 28 7 21 8 -6 0 -17 3 -25 5 -7 3 -24 1 -36 -5z"/>
<path d="M1080 390 c0 -5 9 -10 20 -10 17 0 20 -7 20 -45 0 -25 5 -45 10 -45
6 0 10 20 10 45 0 38 3 45 20 45 11 0 20 5 20 10 0 6 -22 10 -50 10 -27 0 -50
-4 -50 -10z"/>
<path d="M1367 393 c-11 -10 -8 -103 3 -103 6 0 10 25 10 55 0 56 -1 60 -13
48z"/>
<path d="M1588 394 c-12 -11 -10 -104 2 -104 6 0 10 16 10 35 0 44 8 44 40 0
36 -49 50 -45 50 14 0 28 -4 53 -10 56 -6 4 -10 -8 -10 -29 0 -20 -3 -36 -6
-36 -4 0 -21 16 -38 36 -17 20 -34 32 -38 28z"/>
<path d="M491 178 c0 -36 2 -39 9 -20 5 12 7 29 4 37 -5 11 1 15 20 15 27 0
35 -15 14 -23 -8 -3 -5 -6 5 -6 35 -2 15 34 -21 37 -32 3 -32 3 -31 -40z"/>
<path d="M670 205 c-15 -19 -4 -52 21 -60 28 -9 57 3 64 26 9 27 -11 49 -45
49 -15 0 -33 -7 -40 -15z m68 -22 c-2 -22 -8 -28 -28 -28 -20 0 -26 6 -28 28
-3 24 0 27 28 27 28 0 31 -3 28 -27z"/>
<path d="M860 217 c0 -17 30 -77 39 -77 6 0 18 16 26 37 17 41 12 59 -6 19
-12 -25 -29 -36 -29 -18 0 11 -29 49 -30 39z"/>
<path d="M1050 180 c0 -39 1 -40 33 -39 30 2 30 2 5 6 -16 2 -28 10 -28 18 0
8 12 16 28 18 l27 4 -27 2 c-16 0 -28 5 -28 10 0 5 12 12 28 14 25 4 25 4 -5
6 -32 1 -33 0 -33 -39z"/>
<path d="M1220 180 c0 -38 2 -40 29 -40 26 0 61 21 61 36 0 25 -25 44 -55 44
-34 0 -35 -1 -35 -40z m65 0 c0 -18 -6 -26 -22 -28 -20 -3 -23 1 -23 28 0 27
3 31 23 28 16 -2 22 -10 22 -28z"/>
<path d="M1425 189 c-9 -17 -14 -36 -11 -42 3 -9 5 -9 5 1 1 14 61 17 61 2 0
-5 4 -10 9 -10 5 0 2 18 -7 40 -20 48 -36 50 -57 9z m39 -4 c4 -10 -1 -15 -14
-15 -13 0 -18 5 -14 15 4 8 10 15 14 15 4 0 10 -7 14 -15z"/>
</g>
</svg>
